<svg width="192" height="104" viewBox="0 0 192 104" fill="none" xmlns="http://www.w3.org/2000/svg">
<g filter="url(#filter0_d_11_88)">
<rect x="30" y="26" width="132" height="44" rx="10" fill="white"/>
</g>
<path d="M76.4412 43.636V48.928C76.4412 49.672 76.6212 50.224 76.9812 50.584C77.3492 50.944 77.8572 51.124 78.5052 51.124C79.1452 51.124 79.6452 50.944 80.0052 50.584C80.3732 50.224 80.5572 49.672 80.5572 48.928V43.636H81.6492V48.916C81.6492 49.612 81.5092 50.2 81.2292 50.68C80.9492 51.152 80.5692 51.504 80.0892 51.736C79.6172 51.968 79.0852 52.084 78.4932 52.084C77.9012 52.084 77.3652 51.968 76.8852 51.736C76.4132 51.504 76.0372 51.152 75.7572 50.68C75.4852 50.2 75.3492 49.612 75.3492 48.916V43.636H76.4412ZM84.5629 43.636V52H83.4709V43.636H84.5629ZM92.2272 43.636C93.1392 43.636 93.9272 43.808 94.5912 44.152C95.2632 44.488 95.7752 44.972 96.1272 45.604C96.4872 46.236 96.6672 46.98 96.6672 47.836C96.6672 48.692 96.4872 49.436 96.1272 50.068C95.7752 50.692 95.2632 51.172 94.5912 51.508C93.9272 51.836 93.1392 52 92.2272 52H89.6232V43.636H92.2272ZM92.2272 51.1C93.3072 51.1 94.1312 50.816 94.6992 50.248C95.2672 49.672 95.5512 48.868 95.5512 47.836C95.5512 46.796 95.2632 45.984 94.6872 45.4C94.1192 44.816 93.2992 44.524 92.2272 44.524H90.7152V51.1H92.2272ZM104.108 48.46C104.108 48.668 104.096 48.888 104.072 49.12H98.8156C98.8556 49.768 99.0756 50.276 99.4756 50.644C99.8836 51.004 100.376 51.184 100.952 51.184C101.424 51.184 101.816 51.076 102.128 50.86C102.448 50.636 102.672 50.34 102.8 49.972H103.976C103.8 50.604 103.448 51.12 102.92 51.52C102.392 51.912 101.736 52.108 100.952 52.108C100.328 52.108 99.7676 51.968 99.2716 51.688C98.7836 51.408 98.3996 51.012 98.1196 50.5C97.8396 49.98 97.6996 49.38 97.6996 48.7C97.6996 48.02 97.8356 47.424 98.1076 46.912C98.3796 46.4 98.7596 46.008 99.2476 45.736C99.7436 45.456 100.312 45.316 100.952 45.316C101.576 45.316 102.128 45.452 102.608 45.724C103.088 45.996 103.456 46.372 103.712 46.852C103.976 47.324 104.108 47.86 104.108 48.46ZM102.98 48.232C102.98 47.816 102.888 47.46 102.704 47.164C102.52 46.86 102.268 46.632 101.948 46.48C101.636 46.32 101.288 46.24 100.904 46.24C100.352 46.24 99.8796 46.416 99.4876 46.768C99.1036 47.12 98.8836 47.608 98.8276 48.232H102.98ZM107.877 52.108C107.373 52.108 106.921 52.024 106.521 51.856C106.121 51.68 105.805 51.44 105.573 51.136C105.341 50.824 105.213 50.468 105.189 50.068H106.317C106.349 50.396 106.501 50.664 106.773 50.872C107.053 51.08 107.417 51.184 107.865 51.184C108.281 51.184 108.609 51.092 108.849 50.908C109.089 50.724 109.209 50.492 109.209 50.212C109.209 49.924 109.081 49.712 108.825 49.576C108.569 49.432 108.173 49.292 107.637 49.156C107.149 49.028 106.749 48.9 106.437 48.772C106.133 48.636 105.869 48.44 105.645 48.184C105.429 47.92 105.321 47.576 105.321 47.152C105.321 46.816 105.421 46.508 105.621 46.228C105.821 45.948 106.105 45.728 106.473 45.568C106.841 45.4 107.261 45.316 107.733 45.316C108.461 45.316 109.049 45.5 109.497 45.868C109.945 46.236 110.185 46.74 110.217 47.38H109.125C109.101 47.036 108.961 46.76 108.705 46.552C108.457 46.344 108.121 46.24 107.697 46.24C107.305 46.24 106.993 46.324 106.761 46.492C106.529 46.66 106.413 46.88 106.413 47.152C106.413 47.368 106.481 47.548 106.617 47.692C106.761 47.828 106.937 47.94 107.145 48.028C107.361 48.108 107.657 48.2 108.033 48.304C108.505 48.432 108.889 48.56 109.185 48.688C109.481 48.808 109.733 48.992 109.941 49.24C110.157 49.488 110.269 49.812 110.277 50.212C110.277 50.572 110.177 50.896 109.977 51.184C109.777 51.472 109.493 51.7 109.125 51.868C108.765 52.028 108.349 52.108 107.877 52.108ZM112.383 44.356C112.175 44.356 111.999 44.284 111.855 44.14C111.711 43.996 111.639 43.82 111.639 43.612C111.639 43.404 111.711 43.228 111.855 43.084C111.999 42.94 112.175 42.868 112.383 42.868C112.583 42.868 112.751 42.94 112.887 43.084C113.031 43.228 113.103 43.404 113.103 43.612C113.103 43.82 113.031 43.996 112.887 44.14C112.751 44.284 112.583 44.356 112.383 44.356ZM112.911 45.424V52H111.819V45.424H112.911ZM117.484 45.316C118.052 45.316 118.548 45.44 118.972 45.688C119.404 45.936 119.724 46.248 119.932 46.624V45.424H121.036V52.144C121.036 52.744 120.908 53.276 120.652 53.74C120.396 54.212 120.028 54.58 119.548 54.844C119.076 55.108 118.524 55.24 117.892 55.24C117.028 55.24 116.308 55.036 115.732 54.628C115.156 54.22 114.816 53.664 114.712 52.96H115.792C115.912 53.36 116.16 53.68 116.536 53.92C116.912 54.168 117.364 54.292 117.892 54.292C118.492 54.292 118.98 54.104 119.356 53.728C119.74 53.352 119.932 52.824 119.932 52.144V50.764C119.716 51.148 119.396 51.468 118.972 51.724C118.548 51.98 118.052 52.108 117.484 52.108C116.9 52.108 116.368 51.964 115.888 51.676C115.416 51.388 115.044 50.984 114.772 50.464C114.5 49.944 114.364 49.352 114.364 48.688C114.364 48.016 114.5 47.428 114.772 46.924C115.044 46.412 115.416 46.016 115.888 45.736C116.368 45.456 116.9 45.316 117.484 45.316ZM119.932 48.7C119.932 48.204 119.832 47.772 119.632 47.404C119.432 47.036 119.16 46.756 118.816 46.564C118.48 46.364 118.108 46.264 117.7 46.264C117.292 46.264 116.92 46.36 116.584 46.552C116.248 46.744 115.98 47.024 115.78 47.392C115.58 47.76 115.48 48.192 115.48 48.688C115.48 49.192 115.58 49.632 115.78 50.008C115.98 50.376 116.248 50.66 116.584 50.86C116.92 51.052 117.292 51.148 117.7 51.148C118.108 51.148 118.48 51.052 118.816 50.86C119.16 50.66 119.432 50.376 119.632 50.008C119.832 49.632 119.932 49.196 119.932 48.7ZM126.085 45.304C126.885 45.304 127.533 45.548 128.029 46.036C128.525 46.516 128.773 47.212 128.773 48.124V52H127.693V48.28C127.693 47.624 127.529 47.124 127.201 46.78C126.873 46.428 126.425 46.252 125.857 46.252C125.281 46.252 124.821 46.432 124.477 46.792C124.141 47.152 123.973 47.676 123.973 48.364V52H122.881V45.424H123.973V46.36C124.189 46.024 124.481 45.764 124.849 45.58C125.225 45.396 125.637 45.304 126.085 45.304ZM136.557 48.46C136.557 48.668 136.545 48.888 136.521 49.12H131.265C131.305 49.768 131.525 50.276 131.925 50.644C132.333 51.004 132.825 51.184 133.401 51.184C133.873 51.184 134.265 51.076 134.577 50.86C134.897 50.636 135.121 50.34 135.249 49.972H136.425C136.249 50.604 135.897 51.12 135.369 51.52C134.841 51.912 134.185 52.108 133.401 52.108C132.777 52.108 132.217 51.968 131.721 51.688C131.233 51.408 130.849 51.012 130.569 50.5C130.289 49.98 130.149 49.38 130.149 48.7C130.149 48.02 130.285 47.424 130.557 46.912C130.829 46.4 131.209 46.008 131.697 45.736C132.193 45.456 132.761 45.316 133.401 45.316C134.025 45.316 134.577 45.452 135.057 45.724C135.537 45.996 135.905 46.372 136.161 46.852C136.425 47.324 136.557 47.86 136.557 48.46ZM135.429 48.232C135.429 47.816 135.337 47.46 135.153 47.164C134.969 46.86 134.717 46.632 134.397 46.48C134.085 46.32 133.737 46.24 133.353 46.24C132.801 46.24 132.329 46.416 131.937 46.768C131.553 47.12 131.333 47.608 131.277 48.232H135.429ZM139.09 46.492C139.282 46.116 139.554 45.824 139.906 45.616C140.266 45.408 140.702 45.304 141.214 45.304V46.432H140.926C139.702 46.432 139.09 47.096 139.09 48.424V52H137.998V45.424H139.09V46.492Z" fill="#7A7A7A"/>
<circle cx="57" cy="48" r="8" fill="url(#paint0_linear_11_88)"/>
<defs>
<filter id="filter0_d_11_88" x="0" y="0" width="192" height="104" filterUnits="userSpaceOnUse" color-interpolation-filters="sRGB">
<feFlood flood-opacity="0" result="BackgroundImageFix"/>
<feColorMatrix in="SourceAlpha" type="matrix" values="0 0 0 0 0 0 0 0 0 0 0 0 0 0 0 0 0 0 127 0" result="hardAlpha"/>
<feOffset dy="4"/>
<feGaussianBlur stdDeviation="15"/>
<feComposite in2="hardAlpha" operator="out"/>
<feColorMatrix type="matrix" values="0 0 0 0 0 0 0 0 0 0 0 0 0 0 0 0 0 0 0.06 0"/>
<feBlend mode="normal" in2="BackgroundImageFix" result="effect1_dropShadow_11_88"/>
<feBlend mode="normal" in="SourceGraphic" in2="effect1_dropShadow_11_88" result="shape"/>
</filter>
<linearGradient id="paint0_linear_11_88" x1="57" y1="40" x2="57" y2="56" gradientUnits="userSpaceOnUse">
<stop stop-color="#FF8D3A"/>
<stop offset="1" stop-color="#F16500"/>
</linearGradient>
</defs>
</svg>
