<svg width="217" height="104" viewBox="0 0 217 104" fill="none" xmlns="http://www.w3.org/2000/svg">
<g filter="url(#filter0_d_11_89)">
<rect x="30" y="26" width="157" height="44" rx="10" fill="white"/>
</g>
<path d="M84.2479 43.636V48.928C84.2479 49.672 84.4279 50.224 84.7879 50.584C85.1559 50.944 85.6639 51.124 86.3119 51.124C86.9519 51.124 87.4519 50.944 87.8119 50.584C88.1799 50.224 88.3639 49.672 88.3639 48.928V43.636H89.4559V48.916C89.4559 49.612 89.3159 50.2 89.0359 50.68C88.7559 51.152 88.3759 51.504 87.8959 51.736C87.4239 51.968 86.8919 52.084 86.2999 52.084C85.7079 52.084 85.1719 51.968 84.6919 51.736C84.2199 51.504 83.8439 51.152 83.5639 50.68C83.2919 50.2 83.1559 49.612 83.1559 48.916V43.636H84.2479ZM93.6055 52.108C93.1015 52.108 92.6495 52.024 92.2495 51.856C91.8495 51.68 91.5335 51.44 91.3015 51.136C91.0695 50.824 90.9415 50.468 90.9175 50.068H92.0455C92.0775 50.396 92.2295 50.664 92.5015 50.872C92.7815 51.08 93.1455 51.184 93.5935 51.184C94.0095 51.184 94.3375 51.092 94.5775 50.908C94.8175 50.724 94.9375 50.492 94.9375 50.212C94.9375 49.924 94.8095 49.712 94.5535 49.576C94.2975 49.432 93.9015 49.292 93.3655 49.156C92.8775 49.028 92.4775 48.9 92.1655 48.772C91.8615 48.636 91.5975 48.44 91.3735 48.184C91.1575 47.92 91.0495 47.576 91.0495 47.152C91.0495 46.816 91.1495 46.508 91.3495 46.228C91.5495 45.948 91.8335 45.728 92.2015 45.568C92.5695 45.4 92.9895 45.316 93.4615 45.316C94.1895 45.316 94.7775 45.5 95.2255 45.868C95.6735 46.236 95.9135 46.74 95.9455 47.38H94.8535C94.8295 47.036 94.6895 46.76 94.4335 46.552C94.1855 46.344 93.8495 46.24 93.4255 46.24C93.0335 46.24 92.7215 46.324 92.4895 46.492C92.2575 46.66 92.1415 46.88 92.1415 47.152C92.1415 47.368 92.2095 47.548 92.3455 47.692C92.4895 47.828 92.6655 47.94 92.8735 48.028C93.0895 48.108 93.3855 48.2 93.7615 48.304C94.2335 48.432 94.6175 48.56 94.9135 48.688C95.2095 48.808 95.4615 48.992 95.6695 49.24C95.8855 49.488 95.9975 49.812 96.0055 50.212C96.0055 50.572 95.9055 50.896 95.7055 51.184C95.5055 51.472 95.2215 51.7 94.8535 51.868C94.4935 52.028 94.0775 52.108 93.6055 52.108ZM103.547 48.46C103.547 48.668 103.535 48.888 103.511 49.12H98.255C98.295 49.768 98.515 50.276 98.915 50.644C99.323 51.004 99.815 51.184 100.391 51.184C100.863 51.184 101.255 51.076 101.567 50.86C101.887 50.636 102.111 50.34 102.239 49.972H103.415C103.239 50.604 102.887 51.12 102.359 51.52C101.831 51.912 101.175 52.108 100.391 52.108C99.767 52.108 99.207 51.968 98.711 51.688C98.223 51.408 97.839 51.012 97.559 50.5C97.279 49.98 97.139 49.38 97.139 48.7C97.139 48.02 97.275 47.424 97.547 46.912C97.819 46.4 98.199 46.008 98.687 45.736C99.183 45.456 99.751 45.316 100.391 45.316C101.015 45.316 101.567 45.452 102.047 45.724C102.527 45.996 102.895 46.372 103.151 46.852C103.415 47.324 103.547 47.86 103.547 48.46ZM102.419 48.232C102.419 47.816 102.327 47.46 102.143 47.164C101.959 46.86 101.707 46.632 101.387 46.48C101.075 46.32 100.727 46.24 100.343 46.24C99.791 46.24 99.319 46.416 98.927 46.768C98.543 47.12 98.323 47.608 98.267 48.232H102.419ZM106.08 46.492C106.272 46.116 106.544 45.824 106.896 45.616C107.256 45.408 107.692 45.304 108.204 45.304V46.432H107.916C106.692 46.432 106.08 47.096 106.08 48.424V52H104.988V45.424H106.08V46.492ZM117.068 52L115.076 48.58H113.756V52H112.664V43.636H115.364C115.996 43.636 116.528 43.744 116.96 43.96C117.4 44.176 117.728 44.468 117.944 44.836C118.16 45.204 118.268 45.624 118.268 46.096C118.268 46.672 118.1 47.18 117.764 47.62C117.436 48.06 116.94 48.352 116.276 48.496L118.376 52H117.068ZM113.756 47.704H115.364C115.956 47.704 116.4 47.56 116.696 47.272C116.992 46.976 117.14 46.584 117.14 46.096C117.14 45.6 116.992 45.216 116.696 44.944C116.408 44.672 115.964 44.536 115.364 44.536H113.756V47.704ZM125.965 48.46C125.965 48.668 125.953 48.888 125.929 49.12H120.673C120.713 49.768 120.933 50.276 121.333 50.644C121.741 51.004 122.233 51.184 122.809 51.184C123.281 51.184 123.673 51.076 123.985 50.86C124.305 50.636 124.529 50.34 124.657 49.972H125.833C125.657 50.604 125.305 51.12 124.777 51.52C124.249 51.912 123.593 52.108 122.809 52.108C122.185 52.108 121.625 51.968 121.129 51.688C120.641 51.408 120.257 51.012 119.977 50.5C119.697 49.98 119.557 49.38 119.557 48.7C119.557 48.02 119.693 47.424 119.965 46.912C120.237 46.4 120.617 46.008 121.105 45.736C121.601 45.456 122.169 45.316 122.809 45.316C123.433 45.316 123.985 45.452 124.465 45.724C124.945 45.996 125.313 46.372 125.569 46.852C125.833 47.324 125.965 47.86 125.965 48.46ZM124.837 48.232C124.837 47.816 124.745 47.46 124.561 47.164C124.377 46.86 124.125 46.632 123.805 46.48C123.493 46.32 123.145 46.24 122.761 46.24C122.209 46.24 121.737 46.416 121.345 46.768C120.961 47.12 120.741 47.608 120.685 48.232H124.837ZM129.734 52.108C129.23 52.108 128.778 52.024 128.378 51.856C127.978 51.68 127.662 51.44 127.43 51.136C127.198 50.824 127.07 50.468 127.046 50.068H128.174C128.206 50.396 128.358 50.664 128.63 50.872C128.91 51.08 129.274 51.184 129.722 51.184C130.138 51.184 130.466 51.092 130.706 50.908C130.946 50.724 131.066 50.492 131.066 50.212C131.066 49.924 130.938 49.712 130.682 49.576C130.426 49.432 130.03 49.292 129.494 49.156C129.006 49.028 128.606 48.9 128.294 48.772C127.99 48.636 127.726 48.44 127.502 48.184C127.286 47.92 127.178 47.576 127.178 47.152C127.178 46.816 127.278 46.508 127.478 46.228C127.678 45.948 127.962 45.728 128.33 45.568C128.698 45.4 129.118 45.316 129.59 45.316C130.318 45.316 130.906 45.5 131.354 45.868C131.802 46.236 132.042 46.74 132.074 47.38H130.982C130.958 47.036 130.818 46.76 130.562 46.552C130.314 46.344 129.978 46.24 129.554 46.24C129.162 46.24 128.85 46.324 128.618 46.492C128.386 46.66 128.27 46.88 128.27 47.152C128.27 47.368 128.338 47.548 128.474 47.692C128.618 47.828 128.794 47.94 129.002 48.028C129.218 48.108 129.514 48.2 129.89 48.304C130.362 48.432 130.746 48.56 131.042 48.688C131.338 48.808 131.59 48.992 131.798 49.24C132.014 49.488 132.126 49.812 132.134 50.212C132.134 50.572 132.034 50.896 131.834 51.184C131.634 51.472 131.35 51.7 130.982 51.868C130.622 52.028 130.206 52.108 129.734 52.108ZM139.676 48.46C139.676 48.668 139.664 48.888 139.64 49.12H134.384C134.424 49.768 134.644 50.276 135.044 50.644C135.452 51.004 135.944 51.184 136.52 51.184C136.992 51.184 137.384 51.076 137.696 50.86C138.016 50.636 138.24 50.34 138.368 49.972H139.544C139.368 50.604 139.016 51.12 138.488 51.52C137.96 51.912 137.304 52.108 136.52 52.108C135.896 52.108 135.336 51.968 134.84 51.688C134.352 51.408 133.968 51.012 133.688 50.5C133.408 49.98 133.268 49.38 133.268 48.7C133.268 48.02 133.404 47.424 133.676 46.912C133.948 46.4 134.328 46.008 134.816 45.736C135.312 45.456 135.88 45.316 136.52 45.316C137.144 45.316 137.696 45.452 138.176 45.724C138.656 45.996 139.024 46.372 139.28 46.852C139.544 47.324 139.676 47.86 139.676 48.46ZM138.548 48.232C138.548 47.816 138.456 47.46 138.272 47.164C138.088 46.86 137.836 46.632 137.516 46.48C137.204 46.32 136.856 46.24 136.472 46.24C135.92 46.24 135.448 46.416 135.056 46.768C134.672 47.12 134.452 47.608 134.396 48.232H138.548ZM140.709 48.688C140.709 48.016 140.845 47.428 141.117 46.924C141.389 46.412 141.761 46.016 142.233 45.736C142.713 45.456 143.245 45.316 143.829 45.316C144.405 45.316 144.905 45.44 145.329 45.688C145.753 45.936 146.069 46.248 146.277 46.624V45.424H147.381V52H146.277V50.776C146.061 51.16 145.737 51.48 145.305 51.736C144.881 51.984 144.385 52.108 143.817 52.108C143.233 52.108 142.705 51.964 142.233 51.676C141.761 51.388 141.389 50.984 141.117 50.464C140.845 49.944 140.709 49.352 140.709 48.688ZM146.277 48.7C146.277 48.204 146.177 47.772 145.977 47.404C145.777 47.036 145.505 46.756 145.161 46.564C144.825 46.364 144.453 46.264 144.045 46.264C143.637 46.264 143.265 46.36 142.929 46.552C142.593 46.744 142.325 47.024 142.125 47.392C141.925 47.76 141.825 48.192 141.825 48.688C141.825 49.192 141.925 49.632 142.125 50.008C142.325 50.376 142.593 50.66 142.929 50.86C143.265 51.052 143.637 51.148 144.045 51.148C144.453 51.148 144.825 51.052 145.161 50.86C145.505 50.66 145.777 50.376 145.977 50.008C146.177 49.632 146.277 49.196 146.277 48.7ZM150.319 46.492C150.511 46.116 150.783 45.824 151.135 45.616C151.495 45.408 151.931 45.304 152.443 45.304V46.432H152.155C150.931 46.432 150.319 47.096 150.319 48.424V52H149.227V45.424H150.319V46.492ZM153.295 48.7C153.295 48.02 153.431 47.428 153.703 46.924C153.975 46.412 154.351 46.016 154.831 45.736C155.319 45.456 155.875 45.316 156.499 45.316C157.307 45.316 157.971 45.512 158.491 45.904C159.019 46.296 159.367 46.84 159.535 47.536H158.359C158.247 47.136 158.027 46.82 157.699 46.588C157.379 46.356 156.979 46.24 156.499 46.24C155.875 46.24 155.371 46.456 154.987 46.888C154.603 47.312 154.411 47.916 154.411 48.7C154.411 49.492 154.603 50.104 154.987 50.536C155.371 50.968 155.875 51.184 156.499 51.184C156.979 51.184 157.379 51.072 157.699 50.848C158.019 50.624 158.239 50.304 158.359 49.888H159.535C159.359 50.56 159.007 51.1 158.479 51.508C157.951 51.908 157.291 52.108 156.499 52.108C155.875 52.108 155.319 51.968 154.831 51.688C154.351 51.408 153.975 51.012 153.703 50.5C153.431 49.988 153.295 49.388 153.295 48.7ZM164.256 45.304C164.752 45.304 165.2 45.412 165.6 45.628C166 45.836 166.312 46.152 166.536 46.576C166.768 47 166.884 47.516 166.884 48.124V52H165.804V48.28C165.804 47.624 165.64 47.124 165.312 46.78C164.984 46.428 164.536 46.252 163.968 46.252C163.392 46.252 162.932 46.432 162.588 46.792C162.252 47.152 162.084 47.676 162.084 48.364V52H160.992V43.12H162.084V46.36C162.3 46.024 162.596 45.764 162.972 45.58C163.356 45.396 163.784 45.304 164.256 45.304Z" fill="#7A7A7A"/>
<path d="M64.5875 51.995L66.0015 50.5815L72.011 56.591L70.597 58.0045L64.5875 51.995Z" fill="#616161"/>
<path d="M60 54C64.4183 54 68 50.4183 68 46C68 41.5817 64.4183 38 60 38C55.5817 38 52 41.5817 52 46C52 50.4183 55.5817 54 60 54Z" fill="#616161"/>
<path d="M66.225 53.6701L67.6385 52.2561L71.9865 56.6041L70.5725 58.0181L66.225 53.6701Z" fill="#37474F"/>
<path d="M60 52.5C63.5899 52.5 66.5 49.5899 66.5 46C66.5 42.4101 63.5899 39.5 60 39.5C56.4101 39.5 53.5 42.4101 53.5 46C53.5 49.5899 56.4101 52.5 60 52.5Z" fill="#64B5F6"/>
<path d="M63.45 43.1C62.6 42.1 61.35 41.5 60 41.5C58.65 41.5 57.4 42.1 56.55 43.1C56.35 43.3 56.4 43.65 56.6 43.8C56.8 44 57.15 43.95 57.3 43.75C58 42.95 58.95 42.5 60 42.5C61.05 42.5 62 42.95 62.7 43.75C62.8 43.85 62.9501 43.95 63.1001 43.95C63.2001 43.95 63.35 43.9 63.4 43.85C63.6 43.65 63.6 43.3 63.45 43.1Z" fill="#BBDEFB"/>
<defs>
<filter id="filter0_d_11_89" x="0" y="0" width="217" height="104" filterUnits="userSpaceOnUse" color-interpolation-filters="sRGB">
<feFlood flood-opacity="0" result="BackgroundImageFix"/>
<feColorMatrix in="SourceAlpha" type="matrix" values="0 0 0 0 0 0 0 0 0 0 0 0 0 0 0 0 0 0 127 0" result="hardAlpha"/>
<feOffset dy="4"/>
<feGaussianBlur stdDeviation="15"/>
<feComposite in2="hardAlpha" operator="out"/>
<feColorMatrix type="matrix" values="0 0 0 0 0 0 0 0 0 0 0 0 0 0 0 0 0 0 0.06 0"/>
<feBlend mode="normal" in2="BackgroundImageFix" result="effect1_dropShadow_11_89"/>
<feBlend mode="normal" in="SourceGraphic" in2="effect1_dropShadow_11_89" result="shape"/>
</filter>
</defs>
</svg>
